<svg xmlns="http://www.w3.org/2000/svg" viewBox="-3.369 -2.471 6.862 5.800" width="96" height="96">
  <g fill="none" stroke="#d97706" stroke-width="0.34" stroke-linejoin="round">
    <polygon points="-2.10320,-0.07143 -2.96923,-0.57143 -2.96923,-1.57143 -2.10320,-2.07143 -1.23718,-1.57143 -1.23718,-0.57143"></polygon>
    <polygon points="-0.37115,-0.07143 -1.23718,-0.57143 -1.23718,-1.57143 -0.37115,-2.07143 0.49487,-1.57143 0.49487,-0.57143"></polygon>
    <polygon points="1.36090,-0.07143 0.49487,-0.57143 0.49487,-1.57143 1.36090,-2.07143 2.22692,-1.57143 2.22692,-0.57143"></polygon>
    <polygon points="-1.23718,1.42857 -2.10320,0.92857 -2.10320,-0.07143 -1.23718,-0.57143 -0.37115,-0.07143 -0.37115,0.92857"></polygon>
    <polygon points="0.49487,1.42857 -0.37115,0.92857 -0.37115,-0.07143 0.49487,-0.57143 1.36090,-0.07143 1.36090,0.92857"></polygon>
    <polygon points="2.22692,1.42857 1.36090,0.92857 1.36090,-0.07143 2.22692,-0.57143 3.09295,-0.07143 3.09295,0.92857"></polygon>
    <polygon points="-0.37115,2.92857 -1.23718,2.42857 -1.23718,1.42857 -0.37115,0.92857 0.49487,1.42857 0.49487,2.42857"></polygon>
  </g>
</svg>